<svg width="500" height="500" viewBox="0 0 500 500" fill="none" xmlns="http://www.w3.org/2000/svg">
<path d="M350.089 490.667L118.537 291.369C107.228 281.172 101.6 267.341 101.6 249.877C101.6 234.248 107.255 220.73 118.537 209.283L350.089 9.08627C361.371 0.686151 372.246 0.529871 382.713 8.61743C393.18 16.7441 398.4 29.52 398.4 46.9454C398.4 64.9959 393.18 78.5142 382.713 87.5395L171.253 267.927V229.13L382.713 411.276C393.18 420.887 398.4 434.132 398.4 450.972C398.4 463.005 395.79 473.085 390.57 481.173C385.323 489.3 378.961 494.418 371.431 496.488C363.9 498.637 356.777 496.684 350.089 490.667Z" fill="black"/>
</svg>
