<svg width="500" height="500" viewBox="0 0 500 500" fill="none" xmlns="http://www.w3.org/2000/svg">
<path d="M428.738 4C434.185 4 439.625 4 445.072 4C445.21 4.78312 445.785 4.85935 446.451 4.96331C473.54 8.94128 494.87 32.6081 495.903 59.9134C496.596 78.237 489.895 93.4835 476.956 106.374C430.117 153.049 383.43 199.884 336.562 246.538C333.652 249.435 333.901 250.745 336.659 253.482C369.826 286.436 402.861 319.521 435.91 352.592C450.851 367.541 466.139 382.164 480.574 397.59C505.695 424.424 499.222 468.21 467.788 487.261C443.755 501.821 414.795 497.982 394.053 477.275C347.137 430.44 300.27 383.564 253.493 336.59C250.707 333.79 249.397 333.68 246.542 336.549C214.276 369.045 181.858 401.388 149.467 433.759C133.833 449.373 118.559 465.375 102.426 480.456C71.8652 509.022 21.8377 496.409 7.52042 457.045C6.30075 453.691 6.50865 449.831 4 446.941C4 440.537 4 434.127 4 427.723C4.30492 427.411 4.8316 427.141 4.89397 426.788C7.43033 412.698 14.9147 401.596 24.9354 391.63C71.1237 345.71 117.076 299.555 163.237 253.614C166.217 250.648 166.21 249.283 163.237 246.324C116.508 199.815 69.9386 153.153 23.2861 106.575C17.3471 100.643 12.1566 94.2043 8.97572 86.387C7.09077 81.7575 5.64933 76.9479 4.01386 72.2215C4.01386 65.8179 4.01386 59.4074 4.01386 53.0039C5.75328 52.1307 5.39292 50.2803 5.77407 48.8804C11.623 27.2372 25.4136 13.2658 46.5708 6.30085C48.7399 5.58703 51.3178 6.00978 53.0226 4.00693C58.7883 4.00693 64.5541 4.00693 70.3198 4.00693C70.4792 4.25642 70.6178 4.71382 70.8049 4.73461C85.4826 6.39094 97.0764 13.6954 107.305 23.9592C153.618 70.4196 200.083 116.728 246.362 163.223C249.328 166.203 250.693 166.196 253.652 163.216C300.159 116.499 346.832 69.9414 393.395 23.2869C401.101 15.5666 409.819 9.68282 420.311 6.45331C423.111 5.5801 426.222 5.80187 428.738 4Z" fill="black"/>
</svg>
