<svg width="500" height="500" viewBox="0 0 500 500" fill="none" xmlns="http://www.w3.org/2000/svg">
<path d="M172.907 434.152C196.495 410.554 220.792 386.245 244.734 362.115C246.153 360.695 247.926 359.276 250.055 359.276C252.183 359.276 253.956 360.695 255.375 362.115C274.174 381.1 293.151 400.085 312.127 418.893C325.783 432.555 339.439 446.217 353.095 459.88C359.302 466.09 365.155 467.864 372.071 465.912C374.731 465.025 377.392 463.428 380.229 460.589L400.27 440.539C419.956 420.845 440.351 400.44 460.391 380.39C468.904 371.873 468.727 362.292 460.037 353.598C430.419 323.967 396.013 289.368 361.962 255.478C360.366 253.881 358.947 252.284 358.947 250.155C358.947 248.026 360.366 246.252 361.785 244.832C381.648 225.137 401.866 204.91 421.374 185.392C434.144 172.617 446.913 159.842 459.682 147.067C465.889 140.857 467.663 135.002 465.712 128.082C464.825 125.243 463.229 122.582 460.214 119.565L440.883 100.225C420.842 80.1754 400.802 60.1256 380.761 39.8983C377.569 36.7046 374.022 34.9303 370.298 33.5108H362.849C357.529 35.8174 353.449 40.0758 349.016 44.5116C348.306 45.2213 347.42 46.1085 346.71 46.8182L331.458 62.0773C306.452 87.0952 280.559 113 255.02 138.55C253.779 139.97 252.005 141.212 249.877 141.212C247.749 141.212 246.153 139.792 244.911 138.55C226.999 120.63 209.087 102.532 191.174 84.6112C177.519 70.9489 163.863 57.2867 150.384 43.6244C145.773 39.0112 141.694 35.2851 136.551 33.3334H129.634C124.136 35.1077 120.057 39.0112 115.978 43.0921C92.036 67.2229 68.0938 91.1762 45.5704 113.533L44.5063 114.597C40.0725 119.033 35.8161 123.291 33.5106 128.792V137.131C35.8161 142.454 40.0725 146.535 44.3289 150.971C45.0383 151.68 45.9251 152.568 46.6345 153.277L61.8865 168.536C86.8929 193.554 112.786 219.459 138.324 244.832C139.566 246.074 140.985 247.848 140.985 249.8C140.985 251.929 139.566 253.526 138.324 254.768C112.786 280.141 86.8929 306.046 61.8865 331.064L46.6345 346.323C45.9251 347.033 45.0383 347.92 44.3289 348.63C39.8952 352.888 35.8161 356.969 33.3333 362.469V370.809C35.6388 376.309 39.8952 380.568 44.3289 385.003L45.393 386.068C73.4143 414.102 96.8244 437.346 118.993 459.702C125.023 465.735 131.053 467.509 137.97 465.557C141.517 464.493 144.354 462.009 147.014 459.347L172.907 434.152Z" fill="black"/>
</svg>
