<?xml version="1.0" encoding="utf-8"?>
<!-- Generator: Adobe Illustrator 26.4.1, SVG Export Plug-In . SVG Version: 6.00 Build 0)  -->
<svg version="1.1" id="Layer_1" xmlns="http://www.w3.org/2000/svg" xmlns:xlink="http://www.w3.org/1999/xlink" x="0px" y="0px"
	 viewBox="0 0 500 500" style="enable-background:new 0 0 500 500;" xml:space="preserve">
<g>
	<path d="M223.8,278.9c0.5-0.1,0-0.3-3-0.3c0,0,0,0,0,0C221.8,278.7,222.8,278.8,223.8,278.9z"/>
	<path d="M491.7,129c2.4-11.5-3.3-24.9-15.7-27.7c-11.3-2.6-25.1,3.4-27.7,15.7c-2.1,10-4.7,19.8-8.1,29.4c-0.8,2.2-1.5,4.3-2.4,6.4
		c-0.7,1.8-4.3,8.2-0.8,2.2c-2.5,4.3-4.1,9.2-6.4,13.6c-4.3,8.4-9.2,16.6-14.5,24.4c-1.3,1.9-2.6,3.7-3.9,5.5
		c-0.7,1-1.4,1.9-2.1,2.9c-3,3.7-6,7.3-9.2,10.9c-6.5,7.2-13.4,13.9-20.7,20.2c-1.7,1.5-3.4,2.9-5.2,4.3c-0.6,0.5-1.3,1-2,1.6
		c-3.9,2.9-7.9,5.8-12,8.4c-8.1,5.3-16.6,10.1-25.4,14.3c-2,1-4.1,1.9-6.2,2.9c-0.7,0.3-1.4,0.6-2.1,0.9c-0.2,0.1-0.3,0.1-0.5,0.2
		c-0.2,0.1-0.4,0.2-0.5,0.3c0.1-0.1,0.2-0.1,0.3-0.2c-4.7,1.9-9.4,3.6-14.2,5.1c-9.3,3-18.7,5.4-28.3,7.1c-2.2,0.4-4.5,0.8-6.7,1.1
		c0.1,0,0.1,0,0.2,0c-0.1,0-0.2,0-0.3,0c0,0-0.1,0-0.1,0c-0.3,0-0.6,0.1-0.9,0.1c-0.5,0.1-1.1,0.2-1.5,0.2c-5.2,0.6-10.4,1-15.7,1.2
		c-10.6,0.5-21.2,0.2-31.7-0.8c-1.2-0.1-2.5-0.4-3.8-0.5c-0.3,0.1-0.9,0.1-1.5,0c-0.5-0.1-1-0.2-1.5-0.2c-0.1,0-0.2,0-0.3,0
		c0.1,0,0.2,0,0.3,0c-0.9-0.1-1.8-0.3-2.7-0.4c-5.1-0.8-10.1-1.9-15.1-3c-9.4-2.2-18.7-5.1-27.8-8.5c-1.5-0.6-2.9-1.3-4.4-1.9
		c-0.5-0.1-1.2-0.3-1.6-0.5c0,0,0,0,0,0c-0.1,0-0.2-0.1-0.3-0.1c0.1,0,0.2,0,0.2,0.1c-1-0.4-2-0.9-3-1.4c-4.5-2.1-9-4.3-13.4-6.7
		c-8.5-4.7-16.8-9.9-24.6-15.6c-0.7-0.5-1.4-1-2.1-1.5c0.1,0.1,0.1,0.1,0.1,0.2c-0.1-0.1-0.2-0.1-0.2-0.2c0,0,0,0,0,0
		c-0.4-0.3-0.9-0.7-1.2-1.1c-1.2-1-2.6-1.9-3.8-2.9c-3.8-3.2-7.5-6.5-11.1-9.9c-7.7-7.3-14.8-15.2-21.5-23.5
		c-0.8-1.1-1.7-2.3-2.5-3.4c-1.6-2.2-3.1-4.4-4.6-6.7c-3-4.5-5.9-9.1-8.6-13.8c-2.7-4.7-5.2-9.6-7.6-14.5c-1-2-1.9-4-2.8-6.1
		c0,0.1,0,0.1,0,0.2c0-0.1,0-0.1-0.1-0.2c-0.2-0.5-0.4-0.9-0.6-1.4c-0.2-0.5-0.3-1-0.4-1.3c-0.3-0.8-0.7-1.5-1-2.3
		c-4-10.4-7.1-21-9.5-31.8c-2.6-11.5-16.5-19.3-27.7-15.7C11,108.6,4.6,120,7.3,132.4c12,53.6,42.2,101.2,83.6,135.7
		c-2.2,3.1-4.4,6.2-6.6,9.3c-7.5,10.6-15,21.3-22.5,31.9c-1.7,2.5-3.5,4.9-5.2,7.4c-1.6,2.6-2.5,5.4-2.7,8.4c-0.7,3-0.5,6,0.4,9
		c0.7,2.9,2,5.5,4,7.7c1.6,2.4,3.7,4.4,6.3,5.8c5.2,2.8,11.5,4.1,17.3,2.3c1.8-0.8,3.6-1.5,5.4-2.3c3.4-2,6.1-4.7,8.1-8.1
		c4.7-6.7,9.4-13.3,14.1-20c6-8.6,12.1-17.2,18.1-25.7c15.7,8.9,32.3,16.1,49.8,21.4c16.2,4.9,32.8,8.1,49.4,9.5c0,2,0,4,0,5.9
		c0,12.4,0,24.9,0,37.3c0,2.8,0,5.7,0,8.5c-0.1,3.1,0.5,6,1.9,8.7c0.9,2.8,2.5,5.2,4.7,7.2c2,2.2,4.5,3.7,7.2,4.7
		c2.7,1.4,5.6,2.1,8.7,1.9c5.8-0.3,11.9-2.2,15.9-6.6c4-4.4,6.6-9.8,6.6-15.9c0-7.8,0-15.6,0-23.4c0-9.5,0-19,0-28.5
		c33.5-3.2,66.2-13.2,95.8-29.2c1.2,1.7,2.4,3.4,3.6,5.1c7.5,10.6,15,21.3,22.5,31.9c1.7,2.5,3.5,4.9,5.2,7.4
		c1.4,2.6,3.3,4.7,5.8,6.3c2.2,2,4.7,3.3,7.7,4c3,0.9,6,1.1,9,0.4c3-0.1,5.8-1,8.4-2.7c4.8-3.1,9-7.7,10.3-13.4c0.3-2,0.5-4,0.8-6
		c0-4.1-1-7.8-3.1-11.4c-4.7-6.7-9.4-13.3-14.1-20c-6.2-8.8-12.4-17.6-18.7-26.5c6.1-5,12.1-10.2,17.8-15.8
		C457.4,220.5,481.9,176.3,491.7,129z"/>
	<path d="M170.8,264.8c1.4,0.4,2.2,0.4-1.7-0.6c0,0,0,0,0,0C169.7,264.4,170.2,264.6,170.8,264.8z"/>
	<path d="M327,265.2c0.1-0.1,0.3-0.1,0.5-0.2c1.6-0.8,3.7-2.1-0.7,0.3c0,0,0,0,0,0C326.8,265.3,326.9,265.2,327,265.2z"/>
	<path d="M62.2,157.1c-0.6-2.9-1-3.3-1-2.7C61.6,155.3,62,156.2,62.2,157.1C62.2,157.1,62.2,157.1,62.2,157.1z"/>
	<path d="M277.5,278.7c-4.9-0.2-3,0.2-1.1,0.1c0.3-0.1,0.7-0.1,1-0.1C277.5,278.7,277.5,278.7,277.5,278.7z"/>
	<path d="M126,239c-2.8-2.9-2.4-2.2-1.3-1.2C125.1,238.2,125.5,238.6,126,239C125.9,239,125.9,239,126,239z"/>
</g>
</svg>
