<svg width="500" height="500" viewBox="0 0 500 500" fill="none" xmlns="http://www.w3.org/2000/svg">
<path d="M496.987 257.487C495.943 257.663 495.968 258.542 495.775 259.258C493.235 268.587 488.012 276.359 481.088 283.102C432.669 330.275 384.263 377.461 335.779 424.571C324.935 435.106 310.313 437.78 297.238 432.042C284.575 426.48 276.542 414.037 277.083 400.526C277.47 391.16 281.648 383.513 288.431 376.933C319.197 347.1 349.86 317.191 380.536 287.27C381.71 286.128 383.399 285.299 383.812 283.026C381.929 283.026 380.227 283.026 378.525 283.026C265.336 283.026 152.135 283.026 38.9469 283.014C22.1195 283.014 9.48284 274.513 4.67317 260.086C-2.2641 239.293 13.2093 217.697 35.6072 216.969C37.6961 216.906 39.785 216.918 41.8739 216.918C154.108 216.918 266.329 216.918 378.564 216.918C380.266 216.918 381.968 216.918 383.85 216.918C383.386 214.646 381.71 213.804 380.536 212.649C349.757 182.628 318.888 152.669 288.147 122.609C272.493 107.303 273.537 84.7275 290.3 71.9956C303.246 62.1516 321.454 62.7543 333.716 73.4396C335.148 74.6952 336.514 76.0261 337.881 77.3445C382.458 120.738 426.957 164.195 471.636 207.489C482.442 217.96 493.338 228.206 497 243.387C496.987 248.095 496.987 252.791 496.987 257.487Z" fill="black"/>
</svg>
