<?xml version="1.0" encoding="utf-8"?>
<!-- Generator: Adobe Illustrator 26.4.1, SVG Export Plug-In . SVG Version: 6.00 Build 0)  -->
<svg version="1.1" id="Layer_1" xmlns="http://www.w3.org/2000/svg" xmlns:xlink="http://www.w3.org/1999/xlink" x="0px" y="0px"
	 viewBox="0 0 500 500" style="enable-background:new 0 0 500 500;" xml:space="preserve">
<style type="text/css">
	.st0{fill:#010101;}
	.st1{fill:#020202;}
</style>
<g>
	<path class="st0" d="M151.2,493c-8.2-3.8-11.2-10.2-10.5-19.1c0.7-8.8-0.8-17.7,0.8-26.5c3.1-17.2,12.8-29.2,28.8-36.1
		c2.6-1.1,3.9-2.1,3.9-5.3c-0.1-46.4-0.1-92.7-0.1-139.1c0-2.2-0.5-3.7-2.4-5.1c-33.4-23.3-53.5-54.9-59.8-95.1
		c-0.2-1.1-0.5-2.1-0.8-3.7c-14.5,5.6-23.6,15.6-27.3,30.5c-0.8,3.2-1,6.5-1,9.9c0,35,0.1,69.9-0.1,104.9c0,3,0.9,4.2,3.6,5.5
		c16.1,7.9,24.4,20.9,25,38.8c0.1,3.2,0.1,6.3,0,9.5c-0.3,8-6.5,14.2-14.3,14.1c-7.8,0-14-6.2-14.2-14.2c-0.1-3.3,0.1-6.6-0.1-10
		c-0.4-7.7-6.6-13.8-14.2-13.8c-7.6,0-13.8,5.9-14.3,13.7c-0.2,3.5,0,7-0.1,10.4c-0.3,7.4-6,13.2-13.1,13.8
		c-6.9,0.6-14-4.1-14.9-11.2c-1.8-15-0.3-29.4,10.7-41.2c4-4.3,8.6-8,14.2-10.1c2.8-1.1,3.2-2.7,3.2-5.3c-0.1-34.2-0.1-68.3,0-102.5
		c0-35.8,19.5-61.8,54-71.5c2.7-0.8,2.8-2.2,3.1-4.3c7.5-51.5,34.8-88.4,81.8-110.8c0.7-0.3,1.4-0.6,2.1-0.9c1,1.7,0.6,3.3,0.6,4.7
		c0,24.4,0,48.7,0.1,73.1c0,2.8-0.7,5-2.4,7.3c-17.5,24.3-20.3,50.3-6.1,76.6c14.2,26.3,37.5,39.2,67.4,37.4
		c27.6-1.7,48.2-16,59.8-41.1c11.7-25.2,8.6-49.5-7.4-72.1c-2-2.9-3-5.5-3-9c0.1-25.5,0.1-50.9,0.1-76.3c1.5-1,2.6,0.2,3.6,0.7
		c46.6,22.7,73.8,59.6,81,110.9c0.3,2.5,1.2,3.3,3.6,4c32.7,8.7,53.5,35.8,53.6,69.5c0,34.6,0,69.3,0,103.9c0,2.9,0.5,4.5,3.6,6
		c15.8,7.6,24.1,20.4,24.9,37.9c0.2,3.5,0.1,7,0,10.4c-0.3,8-6.6,14.1-14.3,14.1c-7.8-0.1-13.9-6.2-14.1-14.3
		c-0.1-3.2,0.1-6.3-0.1-9.5c-0.3-8.1-6.4-14.1-14.2-14.2c-7.7,0-14,6.2-14.2,14.2c-0.1,3.2,0.1,6.3,0,9.5
		c-0.3,8.1-6.4,14.2-14.2,14.3c-7.8,0-14.1-6.1-14.3-14.1c-0.2-9-0.4-18,3.5-26.5c4.6-10.1,11.8-17.5,21.9-22c2.4-1,3.2-2.2,3.2-4.8
		c-0.1-35.6,0-71.2-0.1-106.8c-0.1-17.8-12.7-34.8-28.5-38.6c-1.7,11.4-4.3,22.6-8.5,33.4c-10.4,26.5-27.3,47.9-50.6,64.2
		c-2.6,1.8-3.7,3.6-3.7,6.8c0.1,45.9,0.1,91.8,0,137.6c0,3.1,0.8,4.5,3.8,5.8c18.7,8.2,28.6,22.8,29.5,43.2
		c0.3,6.9-0.2,13.9,0.1,20.9c0.5,8.8-3.1,14.7-11.5,17.7c-24.4,0-48.8,0-73.2,0c-8.2-3.8-11.2-10.2-10.6-19.1
		c0.5-6.3-0.1-12.7,0.1-19c0.7-20.6,10.6-35.3,29.5-43.6c2.9-1.3,3.9-2.6,3.9-5.8c-0.1-39.5-0.1-79.1-0.1-118.6c0-2.8,0-5.7,0-9
		c-31.8,10.9-63.3,11-94.9,0c-0.1,1.1-0.2,1.7-0.2,2.3c0,42.1,0,84.1-0.1,126.2c0,2.8,1.1,3.7,3.4,4.6c16.2,6.9,26.1,19,29.2,36.3
		c1.6,9.2,0.2,18.6,0.8,27.9c0.5,8.8-3.1,14.7-11.5,17.7C200,493,175.6,493,151.2,493z"/>
	<path class="st1" d="M292.8,146.7c-0.2,23.6-19.5,42.7-43.1,42.5c-23.5-0.1-42.6-19.6-42.5-43.1c0.2-23.4,19.7-42.5,43.3-42.3
		C273.9,104,293,123.5,292.8,146.7z M264.3,146.5c0-7.7-6.4-14.2-14.1-14.2c-7.7-0.1-14.2,6.3-14.4,14c-0.1,7.9,6.5,14.5,14.4,14.5
		C257.9,160.7,264.3,154.2,264.3,146.5z"/>
	<path class="st0" d="M224.4,80.1c0-23,0-45.5,0-68c0-2.2,0.6-2.9,2.8-3.3c15.3-2.4,30.6-2.4,45.9,0c1.9,0.3,2.7,0.9,2.7,2.9
		c-0.1,22.6,0,45.2,0,68.2C258.6,73.8,241.8,73.8,224.4,80.1z"/>
</g>
</svg>
