<?xml version="1.0" encoding="utf-8"?>
<!-- Generator: Adobe Illustrator 26.4.1, SVG Export Plug-In . SVG Version: 6.00 Build 0)  -->
<svg version="1.1" id="Layer_1" xmlns="http://www.w3.org/2000/svg" xmlns:xlink="http://www.w3.org/1999/xlink" x="0px" y="0px"
	 viewBox="0 0 500 500" style="enable-background:new 0 0 500 500;" xml:space="preserve">
<style type="text/css">
	.st0{opacity:0.6;}
</style>
<path d="M8.2,269c4.8,29.4,15.3,57.3,31.1,82.8c15.8,25.5,36.1,47.3,60.2,64.7c25.1,18.1,53.2,30.5,83.4,37
	c6.5,1.4,12.5,2.5,18.4,3.4c10,1.5,20.1,1.8,30.8,2l0.4,0c52.4-0.6,99.7-17.4,140.4-50.1c17,17.2,34.3,34.5,51.1,51.3
	c8.7,8.7,17.4,17.4,26.1,26.1c6.6,6.7,13.2,8.8,18.8,8.8c3.3,0,6.3-0.7,8.9-1.7c7.4-2.8,12.8-8.7,14.8-16.2c2-7.4,0.4-15.1-4.5-21.2
	c-2.6-3.3-5.5-6.1-8.3-8.9c-0.8-0.8-1.6-1.6-2.4-2.4l-10.8-10.8c-19.4-19.5-39.5-39.6-59.4-59.3c23.4-28.9,38.9-61.8,45.9-97.9
	c6.7-34.3,5.2-70.5-4.4-104.5c-9.5-34.1-27-65.9-50.6-91.8c-25.1-27.7-56-48-91.7-60.6C276.1,9,244.4,5,212.5,7.7
	c-30.7,2.6-60.1,11.4-87.5,26C97.6,48.4,73.9,68.1,54.6,92.3c-20.1,25.2-34.3,53.9-42.4,85.4C4.6,207.8,3.2,238.5,8.2,269z
	 M106.5,107.1c33.7-33.5,78.1-51.8,125.2-51.6c47.6,0.2,92.2,18.8,125.6,52.4c33.4,33.6,51.7,78.2,51.5,125.6
	c-0.2,47.5-18.7,92-52.2,125.3c-33.3,33.2-77.6,51.4-124.7,51.4c-0.2,0-0.4,0-0.6,0c-47.5-0.2-92-18.7-125.5-52.1
	C72.4,324.8,54,280.3,54.1,233C54.1,185.5,72.7,140.7,106.5,107.1z"/>
</svg>
