<?xml version="1.0" encoding="utf-8"?>
<!-- Generator: Adobe Illustrator 26.4.1, SVG Export Plug-In . SVG Version: 6.00 Build 0)  -->
<svg version="1.1" id="Layer_1" xmlns="http://www.w3.org/2000/svg" xmlns:xlink="http://www.w3.org/1999/xlink" x="0px" y="0px"
	 viewBox="0 0 500 500" style="enable-background:new 0 0 500 500;" xml:space="preserve">
<g>
	<g>
		<path d="M497.4,307c-0.2-50.3-15.5-100.8-44.8-141.9c-29.8-41.7-70.7-73.2-118.9-90.9C285.8,56.6,231.5,55.1,182.5,69
			C135.4,82.3,92,110.1,60.7,147.9C27.5,188.1,7.6,236.5,3.4,288.6c-0.5,6.2-0.7,12.3-0.8,18.5c0,12,10.5,23.4,22.9,22.9
			c12.4-0.6,22.8-10,22.9-22.9c0-5.7,0.2-11.4,0.6-17.1c0.2-2.8,0.5-5.6,0.8-8.4c0.2-1.6,1.3-6.3-0.1,0.5c0.4-1.8,0.5-3.7,0.8-5.5
			c1.9-11.3,4.6-22.5,8.1-33.4c1.7-5.2,3.6-10.2,5.6-15.3c1.8-4.6-2.2,5-0.2,0.5c0.6-1.2,1.1-2.5,1.7-3.7c1.1-2.4,2.3-4.9,3.5-7.3
			c5-10,10.8-19.5,17.3-28.6c1.5-2.2,3.3-4.2,4.7-6.4c-4,6.1,1-1.2,2.2-2.7c3.7-4.4,7.6-8.7,11.6-12.9c3.7-3.8,7.6-7.5,11.5-11.1
			c2-1.8,4-3.5,6.1-5.2c1.4-1.2,8.8-6.2,2.7-2.2c9.4-6.1,18.1-12.8,28-18.3c4.7-2.6,9.5-5,14.4-7.3c1.2-0.6,2.5-1.1,3.7-1.7
			c4.5-2-5.1,2-0.5,0.2c2.9-1.2,5.9-2.3,8.9-3.4c10.3-3.7,20.9-6.7,31.6-8.9c2.7-0.5,5.4-1,8.2-1.5c1.4-0.2,2.8-0.4,4.1-0.6
			c5-0.8-5.6,0.6-0.5,0.1c6.1-0.6,12.2-1.2,18.3-1.4c11.9-0.4,23.7,0.2,35.5,1.4c5.1,0.5-5.6-0.9-0.5-0.1c1.4,0.2,2.8,0.4,4.1,0.6
			c2.7,0.4,5.5,0.9,8.2,1.5c5.4,1.1,10.7,2.4,16,3.9c5.3,1.5,10.4,3.1,15.6,5c2.5,0.9,5.1,1.9,7.6,2.9c1.6,0.7,5.1,3-0.5-0.2
			c1.5,0.9,3.3,1.5,4.9,2.2c10.2,4.7,20,10.1,29.3,16.3c4.5,2.9,8.6,6.4,13.1,9.3c-6-3.9,0.3,0.3,1.6,1.4c2.4,2,4.8,4,7.1,6.1
			c8.3,7.4,16,15.4,23.1,23.9c0.9,1,1.7,2.1,2.5,3.1c0.6,0.7,1.1,1.4,1.7,2.1c-2.2-2.9-2.6-3.4-1.1-1.5c1.9,2.5,3.7,5,5.5,7.6
			c3.6,5.1,6.9,10.4,10,15.8c2.9,5,5.6,10.2,8.1,15.5c0.6,1.2,1.1,2.4,1.7,3.7c0.7,1.5,2.7,7.5,0.4,0.7c1,3,2.4,5.9,3.5,8.8
			c4.4,12,7.8,24.4,10.1,37c0.6,3.2,0.9,6.4,1.5,9.6c-1.4-6.8-0.3-2.1-0.1-0.5c0.2,1.9,0.4,3.7,0.6,5.6c0.6,6.6,0.8,13.3,0.9,19.9
			c0,12,10.5,23.4,22.9,22.9C486.9,329.3,497.4,319.9,497.4,307L497.4,307z"/>
	</g>
	<path d="M370.8,253.1c-1.2-2.5-3.9-0.2-3.9-0.2l0,0c-7.5,6.1-17.1,9.8-27.5,9.8c-24.1,0-43.7-19.6-43.7-43.7c0-10,3.3-19.1,9-26.5
		l0,0c2.5-3.7-1.5-6-2.2-6.4c-16.1-6.9-33.8-10.8-52.4-10.8c-73.2,0-132.5,59.3-132.5,132.5c0,73.2,59.3,132.5,132.5,132.5
		S382.5,381,382.5,307.8C382.5,288.3,378.3,269.8,370.8,253.1z"/>
</g>
</svg>
