<svg width="500" height="500" viewBox="0 0 500 500" fill="none" xmlns="http://www.w3.org/2000/svg">
<path d="M499.788 141.031C500.573 145.306 498.216 147.771 495.702 150.402C464.745 182.622 398.746 252.322 367.946 284.542C315.932 338.79 263.919 393.038 211.905 447.451C204.362 455.342 199.334 454.684 192.419 447.451C136.791 389.257 61.6779 311.173 5.8928 253.144C-1.96427 244.925 -1.96427 241.144 5.8928 233.089C31.1925 206.622 56.6494 180.485 81.6349 153.854C89.1777 145.799 95.149 147.278 101.278 153.854C126.892 180.485 171.834 227.171 197.448 253.802C198.234 254.624 199.019 255.446 199.648 256.432C201.062 259.062 202.477 258.569 204.048 256.596C204.834 255.61 205.776 254.788 206.719 253.802C259.362 198.896 347.046 106.674 399.532 51.6043C405.817 45.0288 413.674 45.522 419.489 51.7687C444.631 78.7284 470.402 105.195 495.859 131.826C498.373 134.127 500.731 136.757 499.788 141.031Z" fill="black"/>
</svg>
